<svg xmlns="http://www.w3.org/2000/svg" version="1.0" preserveAspectRatio="xMidYMid meet" viewBox="142 188.07 215.91 62.99" height="45">

<g transform="translate(0.000000,500.000000) scale(0.100000,-0.100000)" fill="#000000" stroke="none">
<path d="M2604 3104 c-39 -19 -66 -47 -93 -99 -35 -67 -25 -121 32 -165 31 -25 117 -40 117 -21 0 6 -9 11 -21 11 -34 0 -89 62 -89 102 0 70 73 141 140 136 28 -2 36 -8 38 -25 7 -46 51 -20 52 30 0 4 -15 16 -32 27 -39 24 -101 26 -144 4z"/>
<path d="M2353 3087 c-17 -12 -46 -38 -64 -57 l-34 -35 -3 27 c-3 28 -29 45 -44 30 -29 -29 -14 -227 18 -239 22 -8 24 -3 28 70 4 81 36 136 97 168 84 43 72 -15 -22 -101 -64 -58 -56 -75 33 -75 56 0 63 -2 63 -20 0 -21 -27 -33 -125 -54 -39 -9 -34 -10 43 -7 105 5 130 19 125 75 -2 30 -8 37 -33 45 -42 14 -42 13 -12 44 29 30 50 87 42 112 -5 15 -49 40 -70 40 -6 0 -25 -10 -42 -23z"/>
<path d="M1544 2919 c10 -92 49 -166 109 -203 l47 -29 223 -8 c276 -9 357 -26 442 -90 33 -26 31 -22 -11 19 -88 83 -199 111 -445 112 -199 0 -281 31 -307 116 -6 21 -10 40 -8 41 2 2 19 -5 37 -16 60 -34 195 -61 329 -66 l125 -5 -121 19 c-196 31 -281 62 -379 136 l-48 37 7 -63z"/>
<path d="M3435 2961 c-70 -70 -206 -121 -399 -152 l-121 -18 120 4 c134 4 245 25 320 61 27 13 51 21 53 19 3 -2 -6 -26 -19 -52 -19 -38 -34 -53 -74 -72 -46 -23 -67 -25 -245 -32 -107 -4 -217 -12 -244 -18 -73 -17 -147 -56 -186 -97 l-35 -36 46 32 c78 54 164 70 420 79 221 7 228 8 272 35 29 16 56 43 72 70 25 43 49 140 43 177 -3 20 -3 20 -23 0z"/>
<path d="M2733 2893 c-7 -2 -13 -11 -13 -18 0 -7 6 -16 13 -19 8 -3 6 -10 -8 -21 -20 -17 -20 -17 2 -11 16 5 25 1 33 -14 6 -11 21 -20 33 -20 20 1 21 2 5 14 -11 8 -15 20 -12 33 11 41 -18 71 -53 56z"/>
<path d="M1420 2693 c0 -14 62 -68 100 -88 76 -40 157 -49 385 -48 266 3 365 -8 451 -47 73 -33 77 -25 8 14 -105 59 -159 68 -434 77 -304 9 -432 31 -492 86 -10 9 -18 11 -18 6z"/>
<path d="M3565 2690 c-4 -7 -27 -21 -50 -31 -85 -38 -183 -50 -445 -58 -275 -9 -329 -18 -434 -77 -69 -39 -65 -47 8 -14 86 39 185 50 451 47 240 -2 318 10 400 57 44 27 92 73 83 82 -3 3 -9 0 -13 -6z"/>
</g>
</svg>